{"title":"Gang.Related.S01.E01-12.AVI.HDTV.DivX.NLsub.{Th3Sp3cialist}","uid":10833018,"size":5236586019,"categoryP":"video","categoryS":"hd___tv_shows","magnet":"?xt=urn:btih:0ba6620c114a35a0852241aeab66aadc46ee3097&amp;dn=Gang.Related.S01.E01-12.AVI.HDTV.DivX.NLsub.%7BTh3Sp3cialist%7D&amp;tr=udp%3A%2F%2Ftracker.openbittorrent.com%3A80&amp;tr=udp%3A%2F%2Fopen.demonii.com%3A1337&amp;tr=udp%3A%2F%2Ftracker.coppersurfer.tk%3A6969&amp;tr=udp%3A%2F%2Fexodus.desync.com%3A6969","seeders":4,"leechers":2,"uploader":"HOLLANDmovies","files":-1,"time":1408644172,"description":"General\nComplete name                  : Gang.Related.S01.E01-12.AVI.HDTV.DivX.NLsub.{Th3Sp3cialist}.avi\nFormat                         : AVI\nFormat/Info                    : Audio Video Interleave\nFile size                      : 419 MiB\nDuration                       : 45mn 9s\nOverall bit rate               : 1 297 Kbps\n\nVideo\nID                             : 0\nFormat                         : xvid\nCodec ID                       : xvid\nDuration                       : 45mn 9s\nBit rate                       : 1 157 Kbps\nWidth                          : 640 pixels\nHeight                         : 360 pixels\nDisplay aspect ratio           : 16:9\nFrame rate                     : 25.000 fps\nBits/(Pixel*Frame)             : 0.201\nStream size                    : 374 MiB (89%)\n\nAudio\nID                             : 1\nFormat                         : MPEG Audio\nFormat version                 : Version 1\nFormat profile                 : Layer 3\nMode                           : Joint stereo\nMode extension                 : MS Stereo\nCodec ID                       : 55\nCodec ID/Hint                  : MP3\nDuration                       : 45mn 9s\nBit rate mode                  : Constant\nBit rate                       : 128 Kbps\nChannel(s)                     : 2 channels\nSampling rate                  : 44.1 KHz\nCompression mode               : Lossy\nStream size                    : 41.3 MiB (10%)\nAlignment                      : Aligned on interleaves\nInterleave, duration           : 26 ms (0.65 video frame)\n &lt;a href=&quot;\nhttp://bayimg.com/NapboaafP&quot; rel=&quot;nofollow&quot; target=&quot;_NEW&quot;&gt;\nhttp://bayimg.com/NapboaafP&lt;/a&gt; &lt;a href=&quot;\nhttp://bayimg.com/napBPaAfp&quot; rel=&quot;nofollow&quot; target=&quot;_NEW&quot;&gt;\nhttp://bayimg.com/napBPaAfp&lt;/a&gt; &lt;a href=&quot;\nhttp://bayimg.com/OAPBbaAFP&quot; rel=&quot;nofollow&quot; target=&quot;_NEW&quot;&gt;\nhttp://bayimg.com/OAPBbaAFP&lt;/a&gt; &lt;a href=&quot;\nhttp://bayimg.com/OAPbDaaFP&quot; rel=&quot;nofollow&quot; target=&quot;_NEW&quot;&gt;\nhttp://bayimg.com/OAPbDaaFP&lt;/a&gt; &lt;a href=&quot;\nhttp://bayimg.com/OapBEaAfp&quot; rel=&quot;nofollow&quot; target=&quot;_NEW&quot;&gt;\nhttp://bayimg.com/OapBEaAfp&lt;/a&gt; &lt;a href=&quot;\nhttp://bayimg.com/OapbfAaFp&quot; rel=&quot;nofollow&quot; target=&quot;_NEW&quot;&gt;\nhttp://bayimg.com/OapbfAaFp&lt;/a&gt; &lt;a href=&quot;\nhttp://bayimg.com/oAPBGaaFp&quot; rel=&quot;nofollow&quot; target=&quot;_NEW&quot;&gt;\nhttp://bayimg.com/oAPBGaaFp&lt;/a&gt; &lt;a href=&quot;\nhttp://bayimg.com/oApbHaafp&quot; rel=&quot;nofollow&quot; target=&quot;_NEW&quot;&gt;\nhttp://bayimg.com/oApbHaafp&lt;/a&gt; &lt;a href=&quot;\nhttp://bayimg.com/oApbiaaFp&quot; rel=&quot;nofollow&quot; target=&quot;_NEW&quot;&gt;\nhttp://bayimg.com/oApbiaaFp&lt;/a&gt; &lt;a href=&quot;\nhttp://bayimg.com/oApbjaAFp&quot; rel=&quot;nofollow&quot; target=&quot;_NEW&quot;&gt;\nhttp://bayimg.com/oApbjaAFp&lt;/a&gt; &lt;a href=&quot;\nhttp://bayimg.com/oApBkAaFp&quot; rel=&quot;nofollow&quot; target=&quot;_NEW&quot;&gt;\nhttp://bayimg.com/oApBkAaFp&lt;/a&gt; &lt;a href=&quot;\nhttp://bayimg.com/OApblAAfP&quot; rel=&quot;nofollow&quot; target=&quot;_NEW&quot;&gt;\nhttp://bayimg.com/OApblAAfP&lt;/a&gt;\n\n","torrent":{"xt":"urn:btih:0ba6620c114a35a0852241aeab66aadc46ee3097","amp;dn":"Gang.Related.S01.E01-12.AVI.HDTV.DivX.NLsub.%7BTh3Sp3cialist%7D","amp;tr":["udp%3A%2F%2Ftracker.openbittorrent.com%3A80","udp%3A%2F%2Fopen.demonii.com%3A1337","udp%3A%2F%2Ftracker.coppersurfer.tk%3A6969","udp%3A%2F%2Fexodus.desync.com%3A6969"],"infoHash":"0ba6620c114a35a0852241aeab66aadc46ee3097","infoHashBuffer":{"type":"Buffer","data":[11,166,98,12,17,74,53,160,133,34,65,174,171,102,170,220,70,238,48,151]},"announce":[],"urlList":[]}}